<?xml version="1.0" standalone="no"?>
<!DOCTYPE svg PUBLIC "-//W3C//DTD SVG 20010904//EN"
 "http://www.w3.org/TR/2001/REC-SVG-20010904/DTD/svg10.dtd">
<svg version="1.0" xmlns="http://www.w3.org/2000/svg"
 width="90.000000pt" height="90.000000pt" viewBox="0 0 90.000000 90.000000"
 preserveAspectRatio="xMidYMid meet">

<g transform="translate(0.000000,90.000000) scale(0.100000,-0.100000)"
fill="#000000" stroke="none">
<path d="M383 800 c-71 -15 -130 -46 -181 -97 -207 -207 -99 -550 191 -604
112 -20 227 19 314 107 95 97 124 246 73 378 -57 150 -239 249 -397 216z m-51
-189 c45 -26 200 -25 241 2 14 9 33 17 41 17 22 0 37 -61 43 -175 5 -98 4
-101 -25 -146 -81 -125 -283 -125 -364 0 -29 45 -30 48 -25 151 6 111 20 170
42 170 8 0 29 -9 47 -19z"/>
<path d="M325 455 c-14 -13 -25 -29 -25 -35 0 -6 11 -22 25 -35 13 -14 29 -25
35 -25 6 0 22 11 35 25 14 13 25 29 25 35 0 6 -11 22 -25 35 -13 14 -29 25
-35 25 -6 0 -22 -11 -35 -25z"/>
<path d="M505 455 c-14 -13 -25 -29 -25 -35 0 -6 11 -22 25 -35 13 -14 29 -25
35 -25 6 0 22 11 35 25 14 13 25 29 25 35 0 6 -11 22 -25 35 -13 14 -29 25
-35 25 -6 0 -22 -11 -35 -25z"/>
<path d="M433 343 c16 -16 18 -16 34 0 16 16 15 17 -17 17 -32 0 -33 -1 -17
-17z"/>
</g>
</svg>
